# Blender v3.2.1 OBJ File: 'untitled.blend'
# www.blender.org
mtllib bullet.mtl
o 円柱_円柱.002
v 0.000000 0.500000 1.180885
v -0.000000 -0.000000 -2.667875
v -0.097545 0.490393 1.180885
v -0.191342 0.461940 1.180885
v -0.277785 0.415735 1.180885
v -0.353553 0.353553 1.180885
v -0.415735 0.277785 1.180885
v -0.461940 0.191342 1.180885
v -0.490393 0.097545 1.180885
v -0.500000 0.000000 1.180885
v -0.490393 -0.097545 1.180885
v -0.461940 -0.191342 1.180885
v -0.415735 -0.277785 1.180885
v -0.353553 -0.353553 1.180885
v -0.277785 -0.415735 1.180885
v -0.191342 -0.461940 1.180885
v -0.097545 -0.490393 1.180885
v 0.000000 -0.500000 1.180885
v 0.097545 -0.490393 1.180885
v 0.191342 -0.461940 1.180885
v 0.277785 -0.415735 1.180885
v 0.353553 -0.353553 1.180885
v 0.415735 -0.277785 1.180885
v 0.461940 -0.191342 1.180885
v 0.490393 -0.097545 1.180885
v 0.500000 0.000000 1.180885
v 0.490393 0.097545 1.180885
v 0.461940 0.191342 1.180885
v 0.415735 0.277785 1.180885
v 0.353553 0.353553 1.180885
v 0.277785 0.415735 1.180885
v 0.191342 0.461940 1.180885
v 0.097545 0.490393 1.180885
v 0.000000 0.500000 -0.000000
v -0.097545 0.490393 -0.000000
v -0.191342 0.461940 -0.000000
v -0.277785 0.415735 -0.000000
v -0.353553 0.353553 -0.000000
v -0.415735 0.277785 -0.000000
v -0.461940 0.191342 -0.000000
v -0.490393 0.097545 -0.000000
v -0.500000 -0.000000 0.000000
v -0.490393 -0.097545 0.000000
v -0.461940 -0.191342 0.000000
v -0.415735 -0.277785 0.000000
v -0.353553 -0.353553 0.000000
v -0.277785 -0.415735 0.000000
v -0.191342 -0.461940 0.000000
v -0.097545 -0.490393 0.000000
v 0.000000 -0.500000 0.000000
v 0.097545 -0.490393 0.000000
v 0.191342 -0.461940 0.000000
v 0.277785 -0.415735 0.000000
v 0.353553 -0.353553 0.000000
v 0.415735 -0.277785 0.000000
v 0.461940 -0.191342 0.000000
v 0.490393 -0.097545 0.000000
v 0.500000 0.000000 -0.000000
v 0.490393 0.097545 -0.000000
v 0.461940 0.191342 -0.000000
v 0.415735 0.277785 -0.000000
v 0.353553 0.353553 -0.000000
v 0.277785 0.415735 -0.000000
v 0.191342 0.461940 -0.000000
v 0.097545 0.490393 -0.000000
vt 1.000000 0.750000
vt 0.968750 1.000000
vt 0.968750 0.750000
vt 0.937500 1.000000
vt 0.937500 0.750000
vt 0.906250 1.000000
vt 0.906250 0.750000
vt 0.875000 1.000000
vt 0.875000 0.750000
vt 0.843750 1.000000
vt 0.843750 0.750000
vt 0.812500 1.000000
vt 0.812500 0.750000
vt 0.781250 1.000000
vt 0.781250 0.750000
vt 0.750000 1.000000
vt 0.750000 0.750000
vt 0.718750 1.000000
vt 0.718750 0.750000
vt 0.687500 1.000000
vt 0.687500 0.750000
vt 0.656250 1.000000
vt 0.656250 0.750000
vt 0.625000 1.000000
vt 0.625000 0.750000
vt 0.593750 1.000000
vt 0.593750 0.750000
vt 0.562500 1.000000
vt 0.562500 0.750000
vt 0.531250 1.000000
vt 0.531250 0.750000
vt 0.500000 1.000000
vt 0.500000 0.750000
vt 0.468750 1.000000
vt 0.468750 0.750000
vt 0.437500 1.000000
vt 0.437500 0.750000
vt 0.406250 1.000000
vt 0.406250 0.750000
vt 0.375000 1.000000
vt 0.375000 0.750000
vt 0.343750 1.000000
vt 0.343750 0.750000
vt 0.312500 1.000000
vt 0.312500 0.750000
vt 0.281250 1.000000
vt 0.281250 0.750000
vt 0.250000 1.000000
vt 0.250000 0.750000
vt 0.218750 1.000000
vt 0.218750 0.750000
vt 0.187500 1.000000
vt 0.187500 0.750000
vt 0.156250 1.000000
vt 0.156250 0.750000
vt 0.125000 1.000000
vt 0.125000 0.750000
vt 0.093750 1.000000
vt 0.093750 0.750000
vt 0.062500 1.000000
vt 0.062500 0.750000
vt 0.031250 1.000000
vt 0.031250 0.750000
vt 0.000000 1.000000
vt 0.000000 0.750000
vt 0.985388 0.296822
vt 0.796822 0.014612
vt 0.514612 0.203178
vt 0.000000 0.500000
vt 0.031250 0.500000
vt 0.062500 0.500000
vt 0.093750 0.500000
vt 0.125000 0.500000
vt 0.156250 0.500000
vt 0.187500 0.500000
vt 0.218750 0.500000
vt 0.250000 0.500000
vt 0.281250 0.500000
vt 0.312500 0.500000
vt 0.343750 0.500000
vt 0.375000 0.500000
vt 0.406250 0.500000
vt 0.437500 0.500000
vt 0.468750 0.500000
vt 0.500000 0.500000
vt 0.531250 0.500000
vt 0.562500 0.500000
vt 0.593750 0.500000
vt 0.625000 0.500000
vt 0.656250 0.500000
vt 0.687500 0.500000
vt 0.718750 0.500000
vt 0.750000 0.500000
vt 0.781250 0.500000
vt 0.812500 0.500000
vt 0.843750 0.500000
vt 0.875000 0.500000
vt 0.906250 0.500000
vt 0.937500 0.500000
vt 0.968750 0.500000
vt 1.000000 0.500000
vt 0.703178 0.485388
vt 0.750000 0.490000
vt 0.796822 0.485388
vt 0.841844 0.471731
vt 0.883337 0.449553
vt 0.919706 0.419706
vt 0.949553 0.383337
vt 0.971731 0.341844
vt 0.990000 0.250000
vt 0.985388 0.203178
vt 0.971731 0.158156
vt 0.949553 0.116663
vt 0.919706 0.080294
vt 0.883337 0.050447
vt 0.841844 0.028269
vt 0.750000 0.010000
vt 0.703178 0.014612
vt 0.658156 0.028269
vt 0.616663 0.050447
vt 0.580294 0.080294
vt 0.550447 0.116663
vt 0.528269 0.158156
vt 0.510000 0.250000
vt 0.514612 0.296822
vt 0.528269 0.341844
vt 0.550447 0.383337
vt 0.580294 0.419706
vt 0.616663 0.449553
vt 0.658156 0.471731
vn -0.0964 0.9783 -0.1834
vn -0.2854 0.9407 -0.1834
vn -0.4634 0.8670 -0.1834
vn -0.6236 0.7599 -0.1834
vn -0.7599 0.6236 -0.1834
vn -0.8670 0.4634 -0.1834
vn -0.9407 0.2854 -0.1834
vn -0.9783 0.0964 -0.1834
vn -0.9783 -0.0964 -0.1834
vn -0.9407 -0.2854 -0.1834
vn -0.8670 -0.4634 -0.1834
vn -0.7599 -0.6236 -0.1834
vn -0.6236 -0.7599 -0.1834
vn -0.4634 -0.8670 -0.1834
vn -0.2854 -0.9407 -0.1834
vn -0.0964 -0.9783 -0.1834
vn 0.0964 -0.9783 -0.1834
vn 0.2854 -0.9407 -0.1834
vn 0.4634 -0.8670 -0.1834
vn 0.6236 -0.7599 -0.1834
vn 0.7599 -0.6236 -0.1834
vn 0.8670 -0.4634 -0.1834
vn 0.9407 -0.2854 -0.1834
vn 0.9783 -0.0964 -0.1834
vn 0.9783 0.0964 -0.1834
vn 0.9407 0.2854 -0.1834
vn 0.8670 0.4634 -0.1834
vn 0.7599 0.6236 -0.1834
vn 0.6236 0.7599 -0.1834
vn 0.4634 0.8670 -0.1834
vn 0.2854 0.9407 -0.1834
vn 0.0964 0.9783 -0.1834
vn 0.0000 0.0000 1.0000
vn 0.0980 0.9952 -0.0000
vn 0.2903 0.9569 -0.0000
vn 0.4714 0.8819 0.0000
vn 0.6344 0.7730 -0.0000
vn 0.7730 0.6344 0.0000
vn 0.8819 0.4714 -0.0000
vn 0.9569 0.2903 -0.0000
vn 0.9952 0.0980 -0.0000
vn 0.9952 -0.0980 0.0000
vn 0.9569 -0.2903 0.0000
vn 0.8819 -0.4714 0.0000
vn 0.7730 -0.6344 0.0000
vn 0.6344 -0.7730 0.0000
vn 0.4714 -0.8819 0.0000
vn 0.2903 -0.9569 0.0000
vn 0.0980 -0.9952 0.0000
vn -0.0980 -0.9952 0.0000
vn -0.2903 -0.9569 0.0000
vn -0.4714 -0.8819 0.0000
vn -0.6344 -0.7730 0.0000
vn -0.7730 -0.6344 0.0000
vn -0.8819 -0.4714 0.0000
vn -0.9569 -0.2903 0.0000
vn -0.9952 -0.0980 0.0000
vn -0.9952 0.0980 -0.0000
vn -0.9569 0.2903 -0.0000
vn -0.8819 0.4714 -0.0000
vn -0.7730 0.6344 0.0000
vn -0.6344 0.7730 -0.0000
vn -0.4714 0.8819 -0.0000
vn -0.2903 0.9569 -0.0000
vn -0.0980 0.9952 -0.0000
usemtl マテリアル.002
s off
f 34/1/1 2/2/1 35/3/1
f 35/3/2 2/4/2 36/5/2
f 36/5/3 2/6/3 37/7/3
f 37/7/4 2/8/4 38/9/4
f 38/9/5 2/10/5 39/11/5
f 39/11/6 2/12/6 40/13/6
f 40/13/7 2/14/7 41/15/7
f 41/15/8 2/16/8 42/17/8
f 42/17/9 2/18/9 43/19/9
f 43/19/10 2/20/10 44/21/10
f 44/21/11 2/22/11 45/23/11
f 45/23/12 2/24/12 46/25/12
f 46/25/13 2/26/13 47/27/13
f 47/27/14 2/28/14 48/29/14
f 48/29/15 2/30/15 49/31/15
f 49/31/16 2/32/16 50/33/16
f 50/33/17 2/34/17 51/35/17
f 51/35/18 2/36/18 52/37/18
f 52/37/19 2/38/19 53/39/19
f 53/39/20 2/40/20 54/41/20
f 54/41/21 2/42/21 55/43/21
f 55/43/22 2/44/22 56/45/22
f 56/45/23 2/46/23 57/47/23
f 57/47/24 2/48/24 58/49/24
f 58/49/25 2/50/25 59/51/25
f 59/51/26 2/52/26 60/53/26
f 60/53/27 2/54/27 61/55/27
f 61/55/28 2/56/28 62/57/28
f 62/57/29 2/58/29 63/59/29
f 63/59/30 2/60/30 64/61/30
f 64/61/31 2/62/31 65/63/31
f 65/63/32 2/64/32 34/65/32
f 9/66/33 17/67/33 25/68/33
f 65/63/34 1/69/34 33/70/34
f 64/61/35 33/70/35 32/71/35
f 63/59/36 32/71/36 31/72/36
f 62/57/37 31/72/37 30/73/37
f 61/55/38 30/73/38 29/74/38
f 60/53/39 29/74/39 28/75/39
f 59/51/40 28/75/40 27/76/40
f 58/49/41 27/76/41 26/77/41
f 57/47/42 26/77/42 25/78/42
f 56/45/43 25/78/43 24/79/43
f 55/43/44 24/79/44 23/80/44
f 54/41/45 23/80/45 22/81/45
f 53/39/46 22/81/46 21/82/46
f 52/37/47 21/82/47 20/83/47
f 51/35/48 20/83/48 19/84/48
f 50/33/49 19/84/49 18/85/49
f 49/31/50 18/85/50 17/86/50
f 48/29/51 17/86/51 16/87/51
f 47/27/52 16/87/52 15/88/52
f 46/25/53 15/88/53 14/89/53
f 45/23/54 14/89/54 13/90/54
f 44/21/55 13/90/55 12/91/55
f 43/19/56 12/91/56 11/92/56
f 42/17/57 11/92/57 10/93/57
f 41/15/58 10/93/58 9/94/58
f 40/13/59 9/94/59 8/95/59
f 39/11/60 8/95/60 7/96/60
f 38/9/61 7/96/61 6/97/61
f 37/7/62 6/97/62 5/98/62
f 36/5/63 5/98/63 4/99/63
f 35/3/64 4/99/64 3/100/64
f 34/1/65 3/100/65 1/101/65
f 33/102/33 1/103/33 3/104/33
f 3/104/33 4/105/33 5/106/33
f 5/106/33 6/107/33 7/108/33
f 7/108/33 8/109/33 9/66/33
f 9/66/33 10/110/33 11/111/33
f 11/111/33 12/112/33 13/113/33
f 13/113/33 14/114/33 15/115/33
f 15/115/33 16/116/33 17/67/33
f 17/67/33 18/117/33 19/118/33
f 19/118/33 20/119/33 21/120/33
f 21/120/33 22/121/33 23/122/33
f 23/122/33 24/123/33 25/68/33
f 25/68/33 26/124/33 27/125/33
f 27/125/33 28/126/33 25/68/33
f 28/126/33 29/127/33 25/68/33
f 29/127/33 30/128/33 31/129/33
f 31/129/33 32/130/33 29/127/33
f 32/130/33 33/102/33 29/127/33
f 33/102/33 3/104/33 9/66/33
f 3/104/33 5/106/33 9/66/33
f 5/106/33 7/108/33 9/66/33
f 9/66/33 11/111/33 13/113/33
f 13/113/33 15/115/33 9/66/33
f 15/115/33 17/67/33 9/66/33
f 17/67/33 19/118/33 25/68/33
f 19/118/33 21/120/33 25/68/33
f 21/120/33 23/122/33 25/68/33
f 25/68/33 29/127/33 33/102/33
f 33/102/33 9/66/33 25/68/33
f 65/63/34 34/65/34 1/69/34
f 64/61/35 65/63/35 33/70/35
f 63/59/36 64/61/36 32/71/36
f 62/57/37 63/59/37 31/72/37
f 61/55/38 62/57/38 30/73/38
f 60/53/39 61/55/39 29/74/39
f 59/51/40 60/53/40 28/75/40
f 58/49/41 59/51/41 27/76/41
f 57/47/42 58/49/42 26/77/42
f 56/45/43 57/47/43 25/78/43
f 55/43/44 56/45/44 24/79/44
f 54/41/45 55/43/45 23/80/45
f 53/39/46 54/41/46 22/81/46
f 52/37/47 53/39/47 21/82/47
f 51/35/48 52/37/48 20/83/48
f 50/33/49 51/35/49 19/84/49
f 49/31/50 50/33/50 18/85/50
f 48/29/51 49/31/51 17/86/51
f 47/27/52 48/29/52 16/87/52
f 46/25/53 47/27/53 15/88/53
f 45/23/54 46/25/54 14/89/54
f 44/21/55 45/23/55 13/90/55
f 43/19/56 44/21/56 12/91/56
f 42/17/57 43/19/57 11/92/57
f 41/15/58 42/17/58 10/93/58
f 40/13/59 41/15/59 9/94/59
f 39/11/60 40/13/60 8/95/60
f 38/9/61 39/11/61 7/96/61
f 37/7/62 38/9/62 6/97/62
f 36/5/63 37/7/63 5/98/63
f 35/3/64 36/5/64 4/99/64
f 34/1/65 35/3/65 3/100/65
